# xmcd
#
# Track frame offsets:
#	150
#	12825
#	26105
#	41987
#	56385
#	72532
#	84252
#	101682
#	115602
#	132300
#	144755
#	155947
#	169520
#	185250
#	199647
#	214855
#	231750
#	246622
#	264022
#	280107
#	293865
#
# Disc length: 4138 seconds
#
# Revision: 3
# Processed by: cddbd v1.5.2PL0 Copyright (c) Steve Scherf et al.
# Submitted via: audiograbber 1.83.01
#
DISCID=2d102815
DTITLE=Various Artist - 21 Hot Rockin' Canadian Country Hits
DYEAR=1994
DGENRE=Country
TTITLE0=Jim Witter - Distant Drums
TTITLE1=Anita Perras - This Country's Rockin'
TTITLE2=Michelle Wright - Rock Me Gently
TTITLE3=Lisa Brokup - Country Girl
TTITLE4=Gary Fjellgaard - Train Of Dreams
TTITLE5=David Stone - Old Town Hall
TTITLE6=Lyndia Scott - The Moon She Knows
TTITLE7=Farmer's Daughter - Girls Will Be Girls
TTITLE8=Ray Griff and Swift Current - It's Not The Right Time
TTITLE9=Peter Wild - Satisfied Heart
TTITLE10=Cindy Church - Rockabilly Heart
TTITLE11=Don Neilson - Still In The Game
TTITLE12=Suzanne Gitzi - The Runaround
TTITLE13=Joan Kennedy - You Said It
TTITLE14=Rhodes and Marshall - Rockin' Me Blue
TTITLE15=Cassandra Vasik - Almost Like You Cared
TTITLE16=Ian Tyson - Horsethief Moon
TTITLE17=One Horse Blue - Starting All Over Again
TTITLE18=The Goods - I Really Dug Myself A Hole This Time
TTITLE19=The Blue Shadows - The Fool Is The Last To Know
TTITLE20=Joel Feeney - Say The Word
EXTD=K-Tel # 6150-2\nUPC 0-22775-6150-2-9\n\nNOTE: previous listing has artists
EXTD=and song titles reversed and a few minor omissions.
EXTT0=
EXTT1=
EXTT2=
EXTT3=
EXTT4=
EXTT5=
EXTT6=
EXTT7=
EXTT8=
EXTT9=
EXTT10=
EXTT11=
EXTT12=
EXTT13=
EXTT14=
EXTT15=
EXTT16=
EXTT17=
EXTT18=
EXTT19=
EXTT20=
PLAYORDER=
